name analog
datacolumns 19
datarows 57
range 0.4435 0.47150000000000003
endheader
time	ground_force_vx	ground_force_vy	ground_force_vz	ground_force_px	ground_force_py	ground_force_pz	l_ground_force_vx	l_ground_force_vy	l_ground_force_vz	l_ground_force_px	l_ground_force_py	l_ground_force_pz	ground_torque_x	ground_torque_y	ground_torque_z	l_ground_torque_x	l_ground_torque_y	l_ground_torque_z
0.4435	-0.0	-0.0	-0.0	-0.0	-0.0	-0.0	-1.2368953227996826	11.741750717163086	-785.49169921875	-0.0	-0.0	-0.0	-0.0	-0.0	-0.0	258025.171875	1979.3697509765625	-57.2253532409668
0.444	-0.0	-0.0	-0.0	-0.0	-0.0	-0.0	-2.526865243911743	11.143714904785156	-785.5511474609375	-0.0	-0.0	-0.0	-0.0	-0.0	-0.0	257622.53125	2164.0048828125	-255.7445831298828
0.4445	-0.0	-0.0	-0.0	-0.0	-0.0	-0.0	-3.57915472984314	11.035112380981444	-786.5982666015625	-0.0	-0.0	-0.0	-0.0	-0.0	-0.0	257998.84375	2380.229248046875	-322.6224670410156
0.445	-0.0	-0.0	-0.0	-0.0	-0.0	-0.0	-4.67072343826294	10.853296279907228	-788.0757446289062	-0.0	-0.0	-0.0	-0.0	-0.0	-0.0	258300.84375	2385.13330078125	-527.6185913085938
0.4455	-0.0	-0.0	-0.0	-0.0	-0.0	-0.0	-4.7955641746521	10.374910354614258	-790.130126953125	-0.0	-0.0	-0.0	-0.0	-0.0	-0.0	258965.84375	2553.2685546875	-386.4078674316406
0.446	-0.0	-0.0	-0.0	-0.0	-0.0	-0.0	-4.732987880706787	11.10254955291748	-791.2392578125	-0.0	-0.0	-0.0	-0.0	-0.0	-0.0	258953.515625	2403.02978515625	-351.278564453125
0.4465	-0.0	-0.0	-0.0	-0.0	-0.0	-0.0	-4.973060607910156	11.632293701171877	-792.18359375	-0.0	-0.0	-0.0	-0.0	-0.0	-0.0	259239.46875	2639.63671875	-189.1136016845703
0.447	-0.0	-0.0	-0.0	-0.0	-0.0	-0.0	-5.249789237976074	11.320959091186523	-794.9141845703125	-0.0	-0.0	-0.0	-0.0	-0.0	-0.0	259833.15625	2584.07421875	-436.9836730957031
0.4475	-0.0	-0.0	-0.0	-0.0	-0.0	-0.0	-5.233936309814453	11.912830352783203	-796.31005859375	-0.0	-0.0	-0.0	-0.0	-0.0	-0.0	259957.09375	2578.30126953125	-260.5546875
0.448	-0.0	-0.0	-0.0	-0.0	-0.0	-0.0	-5.067233085632324	11.669134140014648	-797.3568115234375	-0.0	-0.0	-0.0	-0.0	-0.0	-0.0	259843.328125	2300.364501953125	-171.4557647705078
0.4485	-0.0	-0.0	-0.0	-0.0	-0.0	-0.0	-4.973191261291504	11.388134002685549	-798.4249267578125	-0.0	-0.0	-0.0	-0.0	-0.0	-0.0	259987.703125	2360.438720703125	-117.49909973144533
0.449	-0.0	-0.0	-0.0	-0.0	-0.0	-0.0	-5.467524528503418	11.040210723876951	-797.44091796875	-0.0	-0.0	-0.0	-0.0	-0.0	-0.0	259696.375	2056.147705078125	-153.031982421875
0.4495	-0.0	-0.0	-0.0	-0.0	-0.0	-0.0	-5.150687217712402	10.06867218017578	-797.1346435546875	-0.0	-0.0	-0.0	-0.0	-0.0	-0.0	259659.703125	2189.958984375	-117.93561553955078
0.45	-0.0	-0.0	-0.0	-0.0	-0.0	-0.0	-5.040017604827881	9.555166244506836	-797.375732421875	-0.0	-0.0	-0.0	-0.0	-0.0	-0.0	259300.359375	2014.435791015625	-153.1552734375
0.4505	-0.0	-0.0	-0.0	-0.0	-0.0	-0.0	-4.784855842590332	9.196459770202637	-794.9964599609375	-0.0	-0.0	-0.0	-0.0	-0.0	-0.0	259095.859375	1631.5889892578125	-121.57120513916016
0.451	-0.0	-0.0	-0.0	-0.0	-0.0	-0.0	-3.892146825790405	8.937108993530273	-794.429443359375	-0.0	-0.0	-0.0	-0.0	-0.0	-0.0	258391.8125	1655.3177490234375	82.91256713867188
0.4515	-0.0	-0.0	-0.0	-0.0	-0.0	-0.0	-3.0161666870117188	8.401713371276855	-793.5995483398438	-0.0	-0.0	-0.0	-0.0	-0.0	-0.0	257727.9375	1158.4305419921875	189.2113342285156
0.452	-0.0	-0.0	-0.0	-0.0	-0.0	-0.0	-2.5233025550842285	7.76110029220581	-791.571044921875	-0.0	-0.0	-0.0	-0.0	-0.0	-0.0	256944.703125	1305.293701171875	411.7089538574219
0.4525	-0.0	-0.0	-0.0	-0.0	-0.0	-0.0	-2.246100187301636	6.50389575958252	-791.4598388671875	-0.0	-0.0	-0.0	-0.0	-0.0	-0.0	255970.578125	1123.930908203125	472.7844848632813
0.453	-0.0	-0.0	-0.0	-0.0	-0.0	-0.0	-2.3894875049591064	6.094196319580078	-789.5789794921875	-0.0	-0.0	-0.0	-0.0	-0.0	-0.0	255764.234375	1177.436767578125	357.7242126464844
0.4535	-0.0	-0.0	-0.0	-0.0	-0.0	-0.0	-3.1362791061401367	5.116951942443848	-788.7335205078125	-0.0	-0.0	-0.0	-0.0	-0.0	-0.0	255306.515625	1368.634521484375	178.96978759765625
0.454	-0.0	-0.0	-0.0	-0.0	-0.0	-0.0	-3.7200846672058105	4.185577869415283	-788.012451171875	-0.0	-0.0	-0.0	-0.0	-0.0	-0.0	255093.46875	1309.7154541015625	-205.37306213378903
0.4545	-0.0	-0.0	-0.0	-0.0	-0.0	-0.0	-4.850063800811768	3.9150562286376953	-788.75634765625	-0.0	-0.0	-0.0	-0.0	-0.0	-0.0	255108.984375	1048.8499755859375	-488.7281799316406
0.455	-0.0	-0.0	-0.0	-0.0	-0.0	-0.0	-4.535909652709961	3.974475860595703	-789.0596923828125	-0.0	-0.0	-0.0	-0.0	-0.0	-0.0	255700.09375	662.9627075195312	-629.0601196289062
0.4555	-0.0	-0.0	-0.0	-0.0	-0.0	-0.0	-4.163539409637451	3.9036788940429688	-791.8065795898438	-0.0	-0.0	-0.0	-0.0	-0.0	-0.0	256176.84375	541.0723876953125	-565.5863037109375
0.456	-0.0	-0.0	-0.0	-0.0	-0.0	-0.0	-3.116687059402466	4.510284900665283	-792.3179321289062	-0.0	-0.0	-0.0	-0.0	-0.0	-0.0	256830.40625	207.2978057861328	-475.6956176757813
0.4565	-0.0	-0.0	-0.0	-0.0	-0.0	-0.0	-2.129058837890625	4.13339900970459	-792.2716674804688	-0.0	-0.0	-0.0	-0.0	-0.0	-0.0	256507.9375	-149.17991638183594	-301.0723876953125
0.457	-0.0	-0.0	-0.0	-0.0	-0.0	-0.0	-1.7861547470092771	3.4683191776275635	-794.0413208007812	-0.0	-0.0	-0.0	-0.0	-0.0	-0.0	256770.265625	-653.3193359375	-320.7052917480469
0.4575	-0.0	-0.0	-0.0	-0.0	-0.0	-0.0	-1.5967941284179688	2.9385383129119877	-790.993896484375	-0.0	-0.0	-0.0	-0.0	-0.0	-0.0	256603.703125	-902.9706420898438	-348.3229675292969
0.458	-0.0	-0.0	-0.0	-0.0	-0.0	-0.0	-0.8407087326049805	2.750008344650269	-793.10595703125	-0.0	-0.0	-0.0	-0.0	-0.0	-0.0	256109.921875	-767.866943359375	-353.8466796875
0.4585	-0.0	-0.0	-0.0	-0.0	-0.0	-0.0	-0.2539886832237243	1.872890949249268	-789.757080078125	-0.0	-0.0	-0.0	-0.0	-0.0	-0.0	255693.984375	-810.3372802734375	-7.826373100280762
0.459	-0.0	-0.0	-0.0	-0.0	-0.0	-0.0	0.3853897452354431	1.0019512176513672	-787.830322265625	-0.0	-0.0	-0.0	-0.0	-0.0	-0.0	255274.1875	-1271.027587890625	115.09894561767578
0.4595	-0.0	-0.0	-0.0	-0.0	-0.0	-0.0	1.685504913330078	-0.1766433715820312	-786.7111206054688	-0.0	-0.0	-0.0	-0.0	-0.0	-0.0	254990.25	-1207.3594970703125	185.3043975830078
0.46	-0.0	-0.0	-0.0	-0.0	-0.0	-0.0	1.101574182510376	-0.6635441780090332	-786.0375366210938	-0.0	-0.0	-0.0	-0.0	-0.0	-0.0	254204.34375	-961.05078125	-18.726289749145508
0.4605	-0.0	-0.0	-0.0	-0.0	-0.0	-0.0	1.5080833435058594	-0.858479380607605	-783.244873046875	-0.0	-0.0	-0.0	-0.0	-0.0	-0.0	253723.546875	-810.7175903320312	-60.550689697265625
0.461	-0.0	-0.0	-0.0	-0.0	-0.0	-0.0	1.685504913330078	-1.034973382949829	-779.7047119140625	-0.0	-0.0	-0.0	-0.0	-0.0	-0.0	252901.40625	-419.1139221191406	-147.3843536376953
0.4615	-0.0	-0.0	-0.0	-0.0	-0.0	-0.0	1.7491097450256348	-1.2302546501159668	-776.8129272460938	-0.0	-0.0	-0.0	-0.0	-0.0	-0.0	252150.53125	-300.0408020019531	-450.3255004882813
0.462	-0.0	-0.0	-0.0	-0.0	-0.0	-0.0	1.869240403175354	-1.835896611213684	-773.5199584960938	-0.0	-0.0	-0.0	-0.0	-0.0	-0.0	251719.578125	-165.5426025390625	-626.304443359375
0.4625	-0.0	-0.0	-0.0	-0.0	-0.0	-0.0	2.22412109375	-1.5834667682647705	-771.6251220703125	-0.0	-0.0	-0.0	-0.0	-0.0	-0.0	251421.328125	-84.06329345703125	-829.4134521484375
0.463	-0.0	-0.0	-0.0	-0.0	-0.0	-0.0	2.1545605659484863	-1.6781120300292969	-770.6528930664062	-0.0	-0.0	-0.0	-0.0	-0.0	-0.0	251680.390625	190.17816162109372	-975.6753540039062
0.4635	-0.0	-0.0	-0.0	-0.0	-0.0	-0.0	3.0225796699523926	-1.2237340211868286	-770.6281127929688	-0.0	-0.0	-0.0	-0.0	-0.0	-0.0	251782.359375	188.3588104248047	-1004.5941162109376
0.464	-0.0	-0.0	-0.0	-0.0	-0.0	-0.0	3.5419809818267822	-0.6873072385787964	-770.0316162109375	-0.0	-0.0	-0.0	-0.0	-0.0	-0.0	251827.75	208.46832275390625	-1046.681640625
0.4645	-0.0	-0.0	-0.0	-0.0	-0.0	-0.0	3.896796226501465	-0.3468367457389831	-770.8757934570312	-0.0	-0.0	-0.0	-0.0	-0.0	-0.0	252540.421875	-0.1749172806739807	-1245.3726806640625
0.465	-0.0	-0.0	-0.0	-0.0	-0.0	-0.0	4.225542068481445	-0.4910107254981994	-771.198974609375	-0.0	-0.0	-0.0	-0.0	-0.0	-0.0	253076.671875	-184.72137451171875	-1512.1640625
0.4655	-0.0	-0.0	-0.0	-0.0	-0.0	-0.0	3.637142181396485	-0.7557518482208252	-771.7025146484375	-0.0	-0.0	-0.0	-0.0	-0.0	-0.0	253776.15625	-14.371383666992188	-1762.109619140625
0.466	-0.0	-0.0	-0.0	-0.0	-0.0	-0.0	3.916454792022705	-0.1963270008563995	-771.3018188476562	-0.0	-0.0	-0.0	-0.0	-0.0	-0.0	254309.71875	-106.75440216064452	-2003.4007568359373
0.4665	-0.0	-0.0	-0.0	-0.0	-0.0	-0.0	3.220057964324951	0.5101649761199951	-772.7506103515625	-0.0	-0.0	-0.0	-0.0	-0.0	-0.0	255266.78125	160.76319885253906	-2427.81884765625
0.467	-0.0	-0.0	-0.0	-0.0	-0.0	-0.0	2.880871534347534	1.3248252868652344	-775.4656982421875	-0.0	-0.0	-0.0	-0.0	-0.0	-0.0	256223.75	24.69085121154785	-3064.8720703125
0.4675	-0.0	-0.0	-0.0	-0.0	-0.0	-0.0	1.7742156982421875	2.194715976715088	-777.9888305664062	-0.0	-0.0	-0.0	-0.0	-0.0	-0.0	258001.0	-115.8782958984375	-3468.873291015625
0.468	-0.0	-0.0	-0.0	-0.0	-0.0	-0.0	1.0914082527160645	3.1929612159729004	-781.2955932617188	-0.0	-0.0	-0.0	-0.0	-0.0	-0.0	259537.4375	-430.4544067382813	-3900.583984375
0.4685	-0.0	-0.0	-0.0	-0.0	-0.0	-0.0	1.501326084136963	4.74246072769165	-783.8985595703125	-0.0	-0.0	-0.0	-0.0	-0.0	-0.0	261052.984375	-541.14599609375	-3851.793212890625
0.46900000000000003	-0.0	-0.0	-0.0	-0.0	-0.0	-0.0	2.32686448097229	5.4827094078063965	-788.6532592773438	-0.0	-0.0	-0.0	-0.0	-0.0	-0.0	262335.6875	-888.1773071289062	-3675.29345703125
0.46950000000000003	-0.0	-0.0	-0.0	-0.0	-0.0	-0.0	3.3505537509918213	6.243684768676758	-789.781005859375	-0.0	-0.0	-0.0	-0.0	-0.0	-0.0	263416.6875	-1122.130615234375	-3498.66796875
0.47000000000000003	-0.0	-0.0	-0.0	-0.0	-0.0	-0.0	4.135126113891602	6.719274044036865	-790.9633178710938	-0.0	-0.0	-0.0	-0.0	-0.0	-0.0	264249.34375	-1472.1400146484375	-3399.839111328125
0.47050000000000003	-0.0	-0.0	-0.0	-0.0	-0.0	-0.0	4.101377010345459	7.06573486328125	-790.1572265625	-0.0	-0.0	-0.0	-0.0	-0.0	-0.0	264178.96875	-1429.5018310546875	-3256.027587890625
0.47100000000000003	-0.0	-0.0	-0.0	-0.0	-0.0	-0.0	4.42169713973999	7.242378234863281	-790.6921997070312	-0.0	-0.0	-0.0	-0.0	-0.0	-0.0	263966.4375	-1590.6907958984375	-3075.447021484375
0.47150000000000003	-0.0	-0.0	-0.0	-0.0	-0.0	-0.0	4.571209907531738	7.66320276260376	-787.7955932617188	-0.0	-0.0	-0.0	-0.0	-0.0	-0.0	263829.75	-1806.721923828125	-3000.177978515625
